<?xml version="1.0" standalone="no"?>
<!DOCTYPE svg PUBLIC "-//W3C//DTD SVG 20010904//EN"
 "http://www.w3.org/TR/2001/REC-SVG-20010904/DTD/svg10.dtd">
<svg version="1.0" xmlns="http://www.w3.org/2000/svg"
 width="750.000000pt" height="750.000000pt" viewBox="0 0 750.000000 750.000000"
 preserveAspectRatio="xMidYMid meet">
<metadata>
Created by potrace 1.14, written by Peter Selinger 2001-2017
</metadata>
<g transform="translate(0.000000,750.000000) scale(0.100000,-0.100000)"
fill="#000000" stroke="none">
<path d="M4245 6743 c-33 -7 -71 -16 -84 -19 -14 -3 -29 -8 -35 -12 -6 -3 -15
-7 -21 -8 -28 -5 -169 -79 -193 -101 -7 -7 -17 -13 -22 -13 -11 0 -200 -188
-200 -200 0 -5 -6 -15 -13 -22 -35 -36 -107 -170 -142 -263 -58 -151 -87 -409
-63 -560 5 -33 11 -73 13 -90 8 -60 49 -198 65 -220 4 -5 11 -25 15 -42 3 -18
10 -33 15 -33 4 0 10 -10 14 -23 10 -42 123 -202 193 -273 197 -200 423 -296
683 -290 283 7 532 144 713 394 43 59 134 233 142 270 2 9 8 29 14 44 13 35
41 171 47 228 7 69 7 220 0 265 -3 22 -8 58 -11 80 -13 95 -53 213 -113 335
-25 52 -52 101 -59 108 -7 7 -13 16 -13 20 0 7 -11 22 -92 118 -49 58 -185
174 -205 174 -7 0 -13 4 -13 9 0 15 -202 104 -267 117 -13 2 -35 7 -50 10 -56
12 -259 10 -318 -3z"/>
<path d="M2049 6396 c-2 -2 -20 -6 -39 -9 -71 -10 -167 -39 -240 -74 -307
-147 -496 -413 -566 -798 -7 -41 -9 -291 -3 -357 2 -21 8 -38 12 -38 5 0 6 -4
3 -9 -13 -21 71 -285 114 -361 8 -14 14 -27 15 -30 1 -8 77 -133 104 -170 68
-91 199 -224 270 -273 26 -17 48 -33 51 -36 3 -3 14 -11 25 -17 11 -6 45 -24
75 -41 155 -85 342 -132 505 -127 158 6 185 10 285 46 30 10 60 20 65 21 6 2
35 15 65 31 193 100 357 273 440 463 12 26 25 57 30 68 17 40 50 151 53 180 2
17 6 35 8 40 18 32 18 356 1 430 -7 28 -14 61 -16 75 -2 14 -9 36 -14 50 -5
14 -11 30 -12 35 -3 11 -3 12 -20 70 -21 68 -115 249 -171 326 -64 90 -175
206 -249 262 -30 23 -57 44 -60 47 -21 24 -228 130 -252 130 -8 0 -18 4 -24 9
-5 5 -38 16 -74 25 -36 10 -74 19 -85 22 -25 7 -290 16 -296 10z"/>
<path d="M6277 5595 c-1 -2 -27 -5 -57 -9 -87 -9 -106 -13 -127 -25 -11 -5
-23 -8 -26 -5 -3 3 -13 1 -24 -4 -32 -17 -138 -66 -143 -67 -11 -1 -127 -81
-159 -110 -155 -136 -260 -294 -325 -489 -108 -320 -70 -665 103 -931 41 -64
190 -229 199 -221 2 2 15 -7 28 -19 27 -25 185 -105 208 -105 7 0 16 -3 20 -7
3 -4 12 -8 19 -9 7 -1 26 -5 42 -9 110 -24 299 -22 370 5 13 5 25 6 28 3 3 -3
16 2 29 11 12 9 28 16 35 16 22 0 127 53 198 101 84 56 186 152 246 234 24 33
50 66 57 73 7 8 10 17 7 22 -3 5 -1 10 4 12 16 6 89 174 114 263 35 122 40
160 42 304 5 347 -151 661 -413 832 -73 48 -197 102 -262 113 -19 4 -46 9 -60
11 -28 5 -149 13 -153 10z"/>
<path d="M727 4344 c-207 -43 -388 -155 -507 -313 -32 -42 -100 -167 -105
-192 -2 -10 -7 -25 -12 -32 -4 -6 -8 -16 -9 -22 -1 -5 -7 -32 -14 -60 -34
-146 -31 -288 8 -460 13 -55 42 -137 54 -152 6 -7 8 -13 5 -13 -3 0 15 -37 40
-82 112 -203 290 -376 483 -468 47 -23 92 -45 101 -50 9 -4 65 -20 125 -36 84
-21 134 -27 219 -27 191 -2 307 27 454 110 119 68 270 222 296 302 3 12 11 21
16 21 5 0 9 4 9 9 0 5 7 25 15 45 8 20 15 38 15 41 0 3 7 19 15 35 9 17 13 30
11 30 -3 0 0 15 5 33 15 52 23 126 23 212 -1 78 -11 192 -19 205 -2 4 -7 21
-10 38 -16 92 -82 237 -158 350 -68 99 -247 282 -276 282 -5 0 -11 3 -13 8 -4
10 -137 92 -149 92 -5 0 -20 7 -32 15 -27 17 -170 65 -196 65 -10 0 -21 3 -25
7 -18 18 -291 23 -369 7z"/>
<path d="M3947 4344 c-1 -1 -47 -4 -102 -7 -55 -4 -111 -9 -125 -12 -14 -3
-41 -8 -60 -10 -19 -2 -78 -16 -130 -30 -117 -32 -109 -29 -145 -44 -16 -7
-34 -14 -40 -15 -41 -11 -295 -137 -295 -147 0 -3 -8 -9 -17 -13 -58 -19 -301
-223 -373 -313 -8 -10 -36 -43 -61 -73 -77 -93 -160 -230 -223 -369 -21 -46
-39 -91 -41 -100 -3 -9 -12 -36 -21 -61 -9 -25 -18 -52 -20 -60 -2 -8 -9 -35
-15 -60 -6 -25 -13 -54 -15 -65 -1 -11 -5 -30 -8 -41 -2 -12 -7 -39 -10 -60
-4 -22 -11 -66 -17 -99 -6 -33 -12 -69 -14 -80 -1 -11 -8 -51 -15 -90 -6 -38
-14 -83 -16 -100 -3 -16 -7 -39 -9 -50 -1 -11 -10 -65 -20 -120 -9 -55 -19
-111 -21 -125 -3 -14 -7 -36 -9 -50 -4 -30 -10 -69 -24 -147 -5 -32 -12 -74
-15 -93 -3 -19 -7 -44 -10 -55 -4 -19 -14 -82 -21 -128 -2 -12 -6 -38 -10 -57
-3 -19 -10 -62 -15 -95 -6 -33 -12 -73 -15 -90 -23 -128 -21 -315 5 -415 5
-19 11 -46 14 -60 13 -70 116 -302 146 -330 3 -3 17 -21 30 -40 38 -55 68 -87
201 -213 11 -9 22 -17 25 -17 3 0 23 -13 43 -28 56 -44 187 -107 290 -141 52
-17 97 -29 99 -26 2 2 16 -1 31 -7 35 -14 280 -19 356 -8 160 25 298 76 432
160 72 45 108 75 223 187 144 140 184 175 275 243 110 83 232 158 340 209 39
18 87 42 108 53 20 10 37 16 37 12 0 -3 6 -2 13 3 22 17 207 78 300 98 10 2
27 7 38 10 11 4 34 8 52 11 18 2 43 6 57 8 88 18 186 26 350 30 127 4 177 9
290 31 98 19 247 85 363 162 90 60 277 244 277 273 0 5 5 10 10 10 6 0 10 5
10 11 0 6 9 24 20 39 32 44 85 158 108 230 77 239 72 515 -14 732 -42 108
-122 251 -155 278 -3 3 -8 10 -10 17 -7 18 -95 109 -160 163 -51 42 -122 93
-225 160 -130 85 -541 366 -546 374 -4 6 -8 7 -8 3 0 -4 -12 4 -27 18 -15 14
-31 25 -35 25 -5 0 -39 23 -78 50 -39 28 -75 50 -80 50 -6 0 -10 5 -10 10 0 6
-6 10 -14 10 -8 0 -16 4 -18 9 -6 16 -333 227 -423 273 -237 120 -455 176
-753 191 -29 2 -54 2 -55 1z"/>
</g>
</svg>
