<svg width="320" height="522" fill="none" xmlns="http://www.w3.org/2000/svg"><g opacity=".3" clip-path="url(#a)" fill="#FDEEE3"><path d="M.296 0h426.371v.297H.296zM.296 15.131h426.371v.297H.296zM.296 30.262h426.371v.297H.296zM.296 45.393h426.371v.297H.296zM.296 60.524h426.371v.297H.296zM.296 75.656h426.371v.297H.296zM.296 90.787h426.371v.297H.296zM.296 105.918h426.371v.297H.296zM.296 121.049h426.371v.297H.296zM.296 136.18h426.371v.297H.296zM.296 151.311h426.371v.297H.296zM.296 166.442h426.371v.297H.296zM.296 181.573h426.371v.297H.296zM.296 196.704h426.371v.297H.296zM.296 211.835h426.371v.297H.296zM.296 226.966h426.371v.297H.296zM.296 242.098h426.371v.297H.296zM.296 257.229h426.371v.297H.296zM.296 272.36h426.371v.297H.296zM.296 287.491h426.371v.297H.296zM.296 302.622h426.371v.297H.296zM.296 317.753h426.371v.297H.296zM.296 439h426.371v.297H.296zM.296 332.884h426.371v.297H.296zM.296 454.131h426.371v.297H.296zM.296 348.015h426.371v.297H.296zM.296 469.262h426.371v.297H.296zM.296 363.146h426.371v.297H.296zM.296 484.393h426.371v.297H.296zM.296 378.278h426.371v.297H.296zM.296 499.524h426.371v.297H.296zM.296 393.409h426.371v.297H.296zM.296 514.656h426.371v.297H.296zM.296 408.54h426.371v.297H.296z"/></g><g opacity=".2" fill="#FDEEE3"><path d="M0 0h.417v340H0zM15 0h.5v522H15zM30 0h.5v522H30zM45 0h.5v522H45zM61 0h.5v522H61zM76 0h.5v522H76zM91 0h.5v522H91zM106 0h.5v522h-.5zM122 0h.5v522h-.5zM137 0h.5v522h-.5zM152 0h.5v522h-.5zM167 0h.5v522h-.5zM183 0h.5v522h-.5zM198 0h.5v522h-.5zM213 0h.5v522h-.5zM228 0h.5v522h-.5zM243 0h.5v522h-.5zM258 0h.5v522h-.5zM273 0h.5v522h-.5zM289 0h.5v522h-.5zM304 0h.5v522h-.5z"/></g><defs><clipPath id="a"><path fill="#fff" d="M0 0h320v522H0z"/></clipPath></defs></svg>